<svg width="65" height="22" viewBox="0 0 65 22" fill="none" xmlns="http://www.w3.org/2000/svg">
<g clip-path="url(#clip0_168_848)">
<path d="M32.5752 14.0472H27.4595L26.4814 16.7972H37.6909L37.3148 16.4257C36.8634 15.831 36.8634 15.7568 36.412 15.3108C35.75 14.6568 34.8321 14.3444 34.456 14.2701C33.5532 14.0323 32.8762 14.0472 32.5752 14.0472Z" fill="#FFFBF2"/>
<path d="M29.7166 0L21.2155 22H24.6761L31.9735 2.82432L39.3462 22H42.8069L34.3057 0H29.7166Z" fill="#FFFBF2"/>
<path d="M54.1666 0H44.4617V2.84561L45.816 2.82432L46.0416 2.89864H46.4178H53.7152C54.1365 2.89864 54.6932 2.94819 54.919 2.97298C55.27 2.99775 56.258 3.16621 57.4016 3.64189C58.5451 4.11757 59.4829 5.02927 59.8089 5.42568C60.0848 5.69819 60.7268 6.46621 61.0879 7.35811C61.449 8.25 61.6396 9.41438 61.6897 9.88512C61.7399 10.1577 61.8102 10.9851 61.6897 12.1149C61.5694 13.2446 61.2885 14.1217 61.1632 14.4189C61.0378 14.741 60.6516 15.5636 60.1099 16.277C59.5682 16.9906 58.7306 17.6149 58.3796 17.8379C58.0536 18.0359 57.2059 18.4919 56.4236 18.7298C55.6412 18.9676 54.4926 19.0765 54.0162 19.1013H47.6214V3.64189C47.441 3.10676 46.443 2.92343 45.9664 2.89864H44.4617V22H53.7152C54.3772 22 55.2951 21.9008 55.6712 21.8513C56.4487 21.7522 58.2893 21.3906 59.4328 20.7364C60.8622 19.9189 61.8402 19.3987 63.1944 17.3919C64.2777 15.7864 64.699 13.75 64.7742 12.9324C64.8996 11.8919 65.015 9.36488 64.4733 7.58108C63.7962 5.35136 63.2696 4.16217 60.8622 2.1554C58.9363 0.55 55.596 0.0495495 54.1666 0Z" fill="#FFFBF2"/>
<path d="M44.4617 2.97299V2.82434H46.0416V2.97299H44.4617Z" fill="#FFFBF2"/>
<path d="M0.225694 0V2.89864H14.5949C15.4375 2.89864 16.4004 2.55181 16.7767 2.37838C15.5729 2.97298 15.0212 3.41892 14.8959 3.56757L0 19.1757V22H20.0116V19.1013H5.26621C4.42362 19.1013 3.51079 19.3987 3.15972 19.5473C4.0625 19.1311 4.68943 18.6306 4.89005 18.4324L19.7106 2.75V0H0.225694Z" fill="#FFFBF2"/>
</g>
<defs>
<clipPath id="clip0_168_848">
<rect width="65" height="22" fill="white"/>
</clipPath>
</defs>
</svg>
